<svg width="538" height="353" viewBox="0 0 538 353" fill="none" xmlns="http://www.w3.org/2000/svg">
<path d="M152.781 344.214C152.854 344.214 152.926 344.194 152.988 344.155C153.05 344.116 153.1 344.061 153.132 343.996L163.389 322.952C163.412 322.906 163.425 322.856 163.428 322.805C163.431 322.754 163.424 322.703 163.407 322.655C163.391 322.606 163.365 322.562 163.331 322.524C163.297 322.485 163.256 322.454 163.21 322.432C163.164 322.409 163.114 322.396 163.063 322.393C163.012 322.39 162.961 322.397 162.913 322.414C162.864 322.43 162.82 322.456 162.782 322.49C162.743 322.524 162.712 322.565 162.69 322.611L152.432 343.655C152.403 343.714 152.39 343.78 152.393 343.846C152.397 343.912 152.417 343.976 152.452 344.031C152.487 344.087 152.535 344.134 152.593 344.166C152.651 344.197 152.716 344.214 152.781 344.214Z" fill="#292A2E"/>
<path d="M135.438 342.993C135.524 342.993 135.607 342.964 135.676 342.912C135.744 342.859 135.792 342.786 135.814 342.702L147.686 297.376C147.701 297.326 147.706 297.273 147.7 297.221C147.694 297.17 147.677 297.12 147.652 297.074C147.626 297.029 147.592 296.989 147.55 296.957C147.509 296.925 147.462 296.902 147.412 296.889C147.361 296.876 147.309 296.873 147.257 296.88C147.205 296.888 147.156 296.905 147.111 296.932C147.067 296.959 147.028 296.995 146.997 297.037C146.967 297.08 146.945 297.127 146.933 297.178L135.061 342.506C135.048 342.555 135.045 342.607 135.052 342.657C135.059 342.708 135.076 342.756 135.102 342.8C135.128 342.845 135.162 342.883 135.203 342.914C135.243 342.945 135.29 342.967 135.339 342.98C135.371 342.989 135.405 342.993 135.438 342.993Z" fill="#292A2E"/>
<path d="M112.79 344.999C112.854 344.999 112.918 344.984 112.974 344.953C113.031 344.923 113.079 344.879 113.115 344.826C113.151 344.773 113.173 344.711 113.179 344.647C113.185 344.583 113.175 344.519 113.15 344.459L100.877 315.555C100.835 315.464 100.758 315.393 100.664 315.356C100.57 315.32 100.465 315.322 100.372 315.362C100.28 315.401 100.206 315.475 100.166 315.568C100.127 315.661 100.125 315.765 100.161 315.859L112.434 344.764C112.464 344.833 112.514 344.893 112.577 344.935C112.64 344.977 112.714 344.999 112.79 344.999Z" fill="#292A2E"/>
<path d="M134.998 351.697C135.03 351.697 135.062 351.693 135.093 351.685C135.193 351.66 135.279 351.596 135.332 351.508C135.385 351.419 135.401 351.313 135.376 351.213L121.115 294.162C121.102 294.112 121.08 294.066 121.05 294.024C121.019 293.983 120.981 293.949 120.937 293.923C120.893 293.896 120.845 293.879 120.794 293.871C120.744 293.864 120.692 293.866 120.643 293.879C120.593 293.891 120.547 293.913 120.506 293.944C120.465 293.974 120.43 294.012 120.404 294.056C120.377 294.1 120.36 294.149 120.352 294.199C120.345 294.25 120.348 294.301 120.36 294.351L134.621 351.402C134.642 351.486 134.69 351.561 134.759 351.614C134.827 351.668 134.911 351.697 134.998 351.697Z" fill="#292A2E"/>
<path d="M129.94 305.852C133.809 297.718 131.284 288.431 124.3 285.109C117.316 281.787 108.518 285.687 104.649 293.821C100.78 301.955 103.305 311.242 110.289 314.564C117.273 317.887 126.071 313.986 129.94 305.852Z" fill="#0CBC8B"/>
<path opacity="0.4" d="M129.94 305.852C133.809 297.718 131.284 288.431 124.3 285.109C117.316 281.787 108.518 285.687 104.649 293.821C100.78 301.955 103.305 311.242 110.289 314.564C117.273 317.887 126.071 313.986 129.94 305.852Z" fill="white"/>
<path d="M105.937 324.631C107.956 319.62 106.188 314.187 101.988 312.496C97.7891 310.804 92.7488 313.496 90.7306 318.507C88.7124 323.518 90.4804 328.951 94.6797 330.643C98.879 332.334 103.919 329.642 105.937 324.631Z" fill="#0CBC8B"/>
<path d="M155.42 318.201C161.658 316.309 164.832 308.569 162.51 300.914C160.188 293.258 153.249 288.586 147.011 290.478C140.774 292.37 137.599 300.11 139.921 307.765C142.243 315.421 149.182 320.093 155.42 318.201Z" fill="#0CBC8B"/>
<path d="M166.149 334.493C169.631 333.91 171.788 329.464 170.967 324.563C170.146 319.662 166.658 316.162 163.176 316.745C159.694 317.328 157.537 321.774 158.358 326.675C159.178 331.576 162.667 335.076 166.149 334.493Z" fill="#0CBC8B"/>
<path d="M101.343 352.231H161.923V337.135H101.343V352.231Z" fill="#292A2E"/>
<path opacity="0.3" d="M101.343 352.231H161.923V337.135H101.343V352.231Z" fill="white"/>
<path d="M130.056 333.342C132.518 327.229 130.342 320.593 125.195 318.52C120.049 316.447 113.881 319.723 111.419 325.836C108.957 331.949 111.133 338.585 116.279 340.658C121.426 342.73 127.594 339.455 130.056 333.342Z" fill="#0CBC8B"/>
<path d="M143.501 339.142C148.627 339.142 152.782 334.987 152.782 329.862C152.782 324.736 148.627 320.581 143.501 320.581C138.376 320.581 134.22 324.736 134.22 329.862C134.22 334.987 138.376 339.142 143.501 339.142Z" fill="#0CBC8B"/>
<path opacity="0.68" d="M105.937 324.631C107.956 319.62 106.188 314.187 101.988 312.496C97.7891 310.804 92.7488 313.496 90.7306 318.507C88.7124 323.518 90.4804 328.951 94.6797 330.643C98.879 332.334 103.919 329.642 105.937 324.631Z" fill="white"/>
<path opacity="0.68" d="M155.42 318.201C161.658 316.309 164.832 308.569 162.51 300.914C160.188 293.258 153.249 288.586 147.011 290.478C140.774 292.37 137.599 300.11 139.921 307.765C142.243 315.421 149.182 320.093 155.42 318.201Z" fill="white"/>
<path opacity="0.68" d="M166.149 334.493C169.631 333.91 171.788 329.464 170.967 324.563C170.146 319.662 166.658 316.162 163.176 316.745C159.694 317.328 157.537 321.774 158.358 326.675C159.178 331.576 162.667 335.076 166.149 334.493Z" fill="white"/>
<path opacity="0.68" d="M130.056 333.342C132.518 327.229 130.342 320.593 125.195 318.52C120.049 316.447 113.881 319.723 111.419 325.836C108.957 331.949 111.133 338.585 116.279 340.658C121.426 342.73 127.594 339.455 130.056 333.342Z" fill="white"/>
<path opacity="0.4" d="M143.501 339.142C148.627 339.142 152.782 334.987 152.782 329.862C152.782 324.736 148.627 320.581 143.501 320.581C138.376 320.581 134.22 324.736 134.22 329.862C134.22 334.987 138.376 339.142 143.501 339.142Z" fill="white"/>
<path d="M113.691 322.048C120.735 324.017 124.442 318.26 124.442 318.26L124.438 318.252C120.681 317.132 116.515 318.707 113.691 322.048Z" fill="#292A2E"/>
<path d="M158.186 324.405C161.654 323.077 164.528 320.545 166.28 317.271C165.33 316.764 164.241 316.58 163.176 316.746C160.244 317.236 158.252 320.469 158.186 324.405Z" fill="#292A2E"/>
<path d="M141.845 320.729C144.547 323.163 147.922 324.721 151.527 325.199C150.566 323.551 149.122 322.238 147.39 321.438C145.658 320.639 143.722 320.391 141.845 320.729Z" fill="#292A2E"/>
<path d="M253.45 13.7785H50.5879C43.7932 13.7785 38.285 19.2867 38.285 26.0814V223.63C38.285 230.424 43.7932 235.933 50.5879 235.933H253.45C260.245 235.933 265.753 230.424 265.753 223.63V26.0814C265.753 19.2867 260.245 13.7785 253.45 13.7785Z" fill="#F4F4F4"/>
<path d="M248.028 113.302L253.263 96.5754C253.378 96.2078 253.569 95.8683 253.822 95.5783C254.076 95.2884 254.387 95.0544 254.736 94.8913C255.085 94.7282 255.464 94.6395 255.849 94.6309C256.234 94.6222 256.616 94.6939 256.972 94.8412C257.621 95.1337 258.137 95.6565 258.422 96.3083C258.707 96.9601 258.74 97.6944 258.514 98.3689L257.391 101.956L266.099 92.2984C267.048 91.2079 268.911 90.4767 270.064 91.6224C270.537 92.0341 270.856 92.5939 270.97 93.2104C271.084 93.8269 270.985 94.4638 270.69 95.0169C270.702 95.0233 270.714 95.0309 270.725 95.0397C270.732 95.0478 270.738 95.0565 270.744 95.0655L272.208 93.386C272.48 93.0745 272.817 92.8274 273.196 92.6629C273.575 92.4983 273.986 92.4204 274.398 92.4347C274.811 92.4491 275.216 92.5554 275.582 92.7459C275.949 92.9364 276.268 93.2063 276.517 93.5359C276.899 94.0628 277.088 94.7048 277.053 95.3545C277.018 96.0041 276.761 96.6221 276.325 97.105L275.702 97.8206C275.714 97.8483 275.722 97.878 275.723 97.9082C276.256 97.5222 276.909 97.3384 277.565 97.3897C278.222 97.4411 278.838 97.7241 279.304 98.1883C279.8 98.711 280.081 99.4014 280.09 100.122C280.099 100.842 279.836 101.539 279.353 102.074L277.805 103.853C277.845 103.843 277.886 103.843 277.926 103.852C277.966 103.861 278.002 103.88 278.033 103.907C278.069 103.94 278.094 103.983 278.105 104.03C278.674 103.818 279.298 103.798 279.88 103.974C280.462 104.15 280.969 104.513 281.325 105.006C281.687 105.532 281.861 106.165 281.819 106.803C281.776 107.441 281.52 108.045 281.091 108.519L268.035 123.52C266.209 125.619 263.797 127.124 261.109 127.843C258.421 128.562 255.58 128.462 252.95 127.556C250.682 126.774 248.808 125.139 247.726 122.998C246.644 120.857 246.439 118.378 247.156 116.089L248.028 113.302Z" fill="#E98862"/>
<g opacity="0.2">
<path d="M262.118 104.617C262.169 104.66 262.235 104.682 262.301 104.678C262.368 104.674 262.43 104.643 262.475 104.594L270.745 95.3973C270.789 95.3467 270.812 95.2804 270.808 95.213C270.805 95.1455 270.774 95.0823 270.724 95.0372C270.674 94.992 270.608 94.9685 270.54 94.9718C270.473 94.9751 270.409 95.0049 270.364 95.0548L262.094 104.253C262.049 104.304 262.026 104.37 262.03 104.437C262.034 104.505 262.064 104.568 262.114 104.613L262.118 104.617Z" fill="#0C0C0C"/>
</g>
<g opacity="0.2">
<path d="M266.074 108.376C266.124 108.419 266.19 108.441 266.257 108.437C266.323 108.433 266.386 108.402 266.43 108.353L275.659 98.0888C275.704 98.0384 275.727 97.9723 275.724 97.9049C275.72 97.8376 275.69 97.7743 275.64 97.7289C275.589 97.6862 275.523 97.6644 275.456 97.668C275.389 97.6715 275.327 97.7002 275.28 97.7481L266.051 108.012C266.007 108.062 265.983 108.128 265.987 108.196C265.991 108.263 266.021 108.326 266.071 108.371L266.074 108.376Z" fill="#0C0C0C"/>
</g>
<g opacity="0.2">
<path d="M270.334 112.471C270.385 112.515 270.451 112.537 270.517 112.533C270.584 112.528 270.647 112.498 270.691 112.449L278.053 104.261C278.075 104.236 278.092 104.207 278.104 104.175C278.115 104.144 278.12 104.11 278.118 104.077C278.116 104.043 278.108 104.01 278.093 103.98C278.079 103.95 278.058 103.923 278.033 103.9C278.008 103.878 277.979 103.86 277.948 103.849C277.916 103.838 277.882 103.833 277.849 103.835C277.815 103.837 277.782 103.845 277.752 103.86C277.722 103.874 277.695 103.894 277.672 103.919L270.31 112.106C270.266 112.156 270.243 112.223 270.246 112.29C270.25 112.357 270.28 112.42 270.33 112.466L270.334 112.471Z" fill="#0C0C0C"/>
</g>
<path d="M35.0956 117.917L29.6592 100.546C29.5398 100.165 29.3421 99.8122 29.0789 99.5112C28.8157 99.2101 28.4926 98.9672 28.1303 98.7979C27.768 98.6286 27.3744 98.5366 26.9746 98.5278C26.5748 98.5191 26.1776 98.5937 25.8082 98.7469C25.1348 99.0505 24.5981 99.5933 24.3023 100.27C24.0065 100.947 23.9726 101.71 24.2072 102.41L25.3727 106.135L16.3306 96.1034C15.3445 94.9702 13.4105 94.2108 12.2127 95.4003C11.7219 95.828 11.3905 96.4094 11.2726 97.0497C11.1548 97.6899 11.2573 98.3512 11.5636 98.9256C11.5508 98.9324 11.5385 98.9402 11.527 98.949C11.5197 98.9575 11.5131 98.9665 11.5072 98.976L9.98662 97.2293C9.70482 96.9059 9.35445 96.6495 8.96101 96.4787C8.56758 96.3079 8.141 96.227 7.71235 96.242C7.28371 96.2569 6.86379 96.3673 6.48321 96.5651C6.10262 96.7629 5.77095 97.043 5.51235 97.3852C5.11603 97.9323 4.91961 98.5989 4.95597 99.2735C4.99233 99.9481 5.25926 100.59 5.7121 101.091L6.35874 101.835C6.34602 101.864 6.33851 101.894 6.33655 101.925C5.78297 101.525 5.10488 101.334 4.42353 101.387C3.74219 101.44 3.10202 101.734 2.61749 102.216C2.10283 102.759 1.81185 103.476 1.80262 104.224C1.79339 104.972 2.0666 105.696 2.5677 106.252L4.1747 108.098C4.13356 108.088 4.09063 108.088 4.04944 108.098C4.00825 108.107 3.96997 108.127 3.93776 108.154C3.90117 108.189 3.87553 108.234 3.86397 108.283C3.27175 108.063 2.62365 108.043 2.01934 108.228C1.41503 108.412 0.887978 108.789 0.519225 109.302C0.143077 109.849 -0.0375744 110.507 0.00651492 111.169C0.0506043 111.831 0.316853 112.459 0.762163 112.951L14.3187 128.528C16.2153 130.707 18.7196 132.271 21.5105 133.017C24.3014 133.764 27.2517 133.66 29.9831 132.719C32.3385 131.907 34.2846 130.21 35.4081 127.986C36.5315 125.763 36.7437 123.189 35.9996 120.812L35.0956 117.917Z" fill="#E98862"/>
<g opacity="0.2">
<path d="M20.4642 108.899C20.4115 108.944 20.3432 108.967 20.274 108.962C20.2047 108.958 20.14 108.926 20.0935 108.875L11.5067 99.3246C11.4611 99.2719 11.4379 99.2035 11.4423 99.134C11.4466 99.0645 11.4781 98.9994 11.5299 98.9529C11.5817 98.9063 11.6498 98.882 11.7193 98.8851C11.7889 98.8882 11.8545 98.9185 11.902 98.9695L20.4888 108.52C20.5122 108.546 20.5302 108.576 20.5418 108.609C20.5535 108.642 20.5585 108.676 20.5567 108.711C20.5548 108.746 20.5462 108.78 20.5311 108.812C20.5161 108.843 20.495 108.871 20.469 108.895L20.4642 108.899Z" fill="#0C0C0C"/>
</g>
<g opacity="0.2">
<path d="M16.3571 112.802C16.3044 112.847 16.2361 112.87 16.1668 112.865C16.0975 112.861 16.0328 112.83 15.9864 112.778L6.40319 102.12C6.35624 102.067 6.33202 101.998 6.33584 101.928C6.33967 101.858 6.37122 101.792 6.42358 101.745C6.47693 101.7 6.54533 101.677 6.61495 101.681C6.68456 101.684 6.75017 101.714 6.79849 101.765L16.3817 112.423C16.4287 112.475 16.4531 112.544 16.4493 112.615C16.4456 112.685 16.4142 112.751 16.3619 112.798L16.3571 112.802Z" fill="#0C0C0C"/>
</g>
<g opacity="0.2">
<path d="M11.9337 117.055C11.8809 117.1 11.8127 117.123 11.7435 117.119C11.6742 117.114 11.6095 117.083 11.563 117.031L3.91733 108.53C3.87024 108.477 3.84593 108.408 3.84976 108.338C3.85358 108.267 3.88522 108.201 3.93772 108.154C3.99022 108.107 4.05928 108.083 4.1297 108.087C4.20012 108.091 4.26614 108.122 4.31323 108.175L11.9571 116.676C11.9805 116.702 11.9985 116.732 12.0101 116.765C12.0218 116.798 12.0269 116.833 12.025 116.868C12.0232 116.902 12.0145 116.937 11.9994 116.968C11.9844 117 11.9633 117.028 11.9373 117.051L11.9337 117.055Z" fill="#0C0C0C"/>
</g>
<path d="M198.497 117.112L243.454 200.109L209.94 203.222L241.875 110.686L278.24 123.548L244.892 215.585C243.702 218.87 241.611 221.753 238.858 223.905C236.105 226.056 232.802 227.389 229.327 227.75C225.852 228.111 222.345 227.487 219.209 225.947C216.072 224.408 213.433 222.017 211.592 219.047L211.377 218.698L161.716 138.429L198.497 117.112Z" fill="#367CFF"/>
<path d="M172.704 57.2476C172.704 57.2476 180.729 51.4458 182.97 37.7567C184.705 27.1574 174.757 33.8427 174.757 33.8427C174.757 33.8427 175.932 26.1983 170.334 26.8443C164.735 27.4903 161.441 35.4779 161.441 35.4779" fill="#0C0C0C"/>
<path d="M141.449 27.1472C141.449 27.1472 113.676 29.5466 122.923 67.3016L125.372 67.5163L130.342 67.9524" fill="#0C0C0C"/>
<path d="M167.744 106.869C167.624 106.853 166.27 129.289 140.205 127.333C122.161 125.982 115.727 106.837 115.312 106.837C117.257 106.424 120.533 105.822 121.397 105.361C124.238 103.835 127.755 102.246 128.67 96.7278C129.198 93.5486 128.302 77.2777 128.578 74.0601L156.276 80.2421C155.889 87.0378 153.18 102.792 162.675 105.581C164.256 106.042 165.958 106.466 167.744 106.869Z" fill="#E98862"/>
<path opacity="0.52" d="M156.666 99.1421C156.232 97.7438 155.953 96.3022 155.833 94.843C155.528 91.5137 155.588 88.161 156.013 84.8448C150.383 84.0848 145.08 81.7611 140.705 78.1379C140.19 80.037 137.362 88.3353 138.144 90.142C139.626 93.5546 146.583 99.1421 156.666 99.1421Z" fill="#0C0C0C"/>
<path d="M150.488 94.9288C139.583 93.7243 126.649 86.5526 126.766 71.7189L126.871 58.3339C126.988 43.5003 134.873 31.5364 148.84 31.6461C162.806 31.7559 173.152 43.8632 173.035 58.6993L172.989 64.6245C172.937 66.6588 172.747 68.6872 172.42 70.6956C171.594 76.0103 170.317 84.0896 166.587 89.4966C163.065 94.5959 157.457 95.6984 150.488 94.9288Z" fill="#E98862"/>
<path opacity="0.5" d="M155.237 80.4995C157.455 80.96 159.533 81.9352 161.304 83.3464C161.379 83.4033 161.427 83.4875 161.44 83.5804C161.452 83.6734 161.427 83.7674 161.37 83.8418C161.313 83.9163 161.229 83.9651 161.136 83.9775C161.043 83.9898 160.949 83.9648 160.875 83.9078C157.033 80.9686 153.049 80.238 149.354 81.7952C149.279 81.8292 149.203 81.8589 149.124 81.8839C149.034 81.909 148.937 81.8971 148.856 81.851C148.774 81.8048 148.714 81.7281 148.689 81.6377C148.664 81.5473 148.676 81.4507 148.722 81.3691C148.768 81.2875 148.845 81.2276 148.935 81.2025C148.964 81.1929 149.012 81.1719 149.079 81.1425C151.022 80.3201 153.166 80.0962 155.237 80.4995Z" fill="#0C0C0C"/>
<path d="M168.279 67.3778C169.229 67.3778 169.999 66.6076 169.999 65.6574C169.999 64.7073 169.229 63.9371 168.279 63.9371C167.329 63.9371 166.558 64.7073 166.558 65.6574C166.558 66.6076 167.329 67.3778 168.279 67.3778Z" fill="#0C0C0C"/>
<path d="M152.534 66.1055C153.484 66.1055 154.254 65.3352 154.254 64.3851C154.254 63.435 153.484 62.6647 152.534 62.6647C151.584 62.6647 150.814 63.435 150.814 64.3851C150.814 65.3352 151.584 66.1055 152.534 66.1055Z" fill="#0C0C0C"/>
<path d="M127.598 76.2447C123.354 76.2111 119.948 71.6433 119.98 67.3988C120.012 63.1543 123.472 60.8413 127.718 60.8742L129.883 63.7355L131.246 76.2723L127.598 76.2447Z" fill="#E98862"/>
<path d="M131.96 69.5126C131.96 69.5126 133.825 48.5582 140.214 47.3933C144.469 46.6177 154.622 52.8399 164.179 51.2203C168.36 50.5119 172.292 51.624 172.653 53.5993C172.797 54.3791 175.621 43.2423 169.274 34.6135C164.221 27.7435 147.27 25.4844 139.494 27.5431C117.959 33.2417 126.824 61.7806 126.824 61.7806L127.631 69.0345L131.96 69.5126Z" fill="#0C0C0C"/>
<g opacity="0.52">
<path d="M158.747 76.9568H158.774C160.142 76.9712 162.438 76.8428 162.45 75.8171C162.458 74.9695 160.233 65.7936 159.98 64.7505C159.956 64.6623 159.899 64.5867 159.821 64.54C159.743 64.4933 159.649 64.4792 159.56 64.5007C159.472 64.5222 159.395 64.5776 159.347 64.6551C159.299 64.7325 159.283 64.8258 159.302 64.9148C160.291 68.9788 161.762 75.2322 161.753 75.8099C161.616 76.0498 160.199 76.2724 158.782 76.258C158.693 76.2581 158.607 76.2925 158.542 76.3542C158.478 76.4158 158.439 76.4998 158.435 76.5891C158.43 76.6783 158.46 76.7658 158.518 76.8335C158.577 76.9013 158.659 76.9441 158.747 76.9532V76.9568Z" fill="#0C0C0C"/>
</g>
<path d="M163.62 56.3256C165.047 55.9608 166.546 55.988 167.96 56.4042C168.655 56.6043 169.317 56.9076 169.922 57.304C170.522 57.6934 171.07 58.1569 171.553 58.6836C171.635 58.7656 171.682 58.8766 171.683 58.9926C171.684 59.1086 171.639 59.2204 171.558 59.3037C171.478 59.3871 171.367 59.4354 171.251 59.4382C171.135 59.441 171.023 59.3982 170.938 59.3189L170.913 59.2949C170.46 58.8535 169.953 58.4706 169.405 58.1552C168.866 57.842 168.282 57.6121 167.673 57.4731C166.473 57.1899 165.219 57.2288 164.038 57.5859L163.993 57.6003C163.826 57.6545 163.643 57.6399 163.486 57.5597C163.329 57.4794 163.211 57.3401 163.156 57.1723C163.102 57.0045 163.117 56.8221 163.197 56.6651C163.277 56.5081 163.417 56.3895 163.584 56.3352L163.62 56.3256Z" fill="#0C0C0C"/>
<path d="M153.441 56.7989C152.341 56.2417 151.113 55.9853 149.881 56.0557C149.258 56.0866 148.643 56.2115 148.057 56.4264C147.462 56.641 146.897 56.9296 146.375 57.2854L146.346 57.3034C146.249 57.3629 146.133 57.3828 146.022 57.3588C145.91 57.3349 145.812 57.2689 145.749 57.1747C145.685 57.0804 145.659 56.9652 145.678 56.8528C145.697 56.7405 145.758 56.6398 145.85 56.5716C146.417 56.1373 147.038 55.7763 147.696 55.4972C148.361 55.2124 149.066 55.0288 149.785 54.9526C151.249 54.789 152.731 55.0232 154.073 55.6304C154.233 55.7043 154.357 55.8388 154.418 56.0042C154.479 56.1696 154.472 56.3524 154.398 56.5125C154.324 56.6725 154.189 56.7967 154.024 56.8576C153.859 56.9185 153.676 56.9112 153.516 56.8373L153.485 56.8223L153.441 56.7989Z" fill="#0C0C0C"/>
<path d="M161.841 41.7419C164.995 41.1503 166.846 36.9069 165.975 32.2641C165.104 27.6212 161.841 24.337 158.687 24.9286C155.533 25.5202 153.682 29.7636 154.553 34.4065C155.424 39.0493 158.687 42.3335 161.841 41.7419Z" fill="#0C0C0C"/>
<path d="M139.59 121.805C121.473 120.951 120.71 105.573 120.71 105.573C120.71 105.573 111.733 106.153 105.766 106.961C95.9964 108.28 89.551 111.595 84.4223 116.724C79.6512 121.495 76.7443 126.657 79.8203 159.613C82.0457 183.476 80.4802 235.967 80.4802 235.967H189.819C189.819 235.967 196.376 167.164 197.29 156.427C199.034 135.92 206.177 124.361 196.193 113.798C188.952 106.137 170.261 105.573 162.735 105.573C162.615 105.573 164.263 122.969 139.59 121.805Z" fill="#367CFF"/>
<path d="M117.552 142.894L66.3855 217.31L66.1552 217.646C64.2097 220.475 61.5194 222.711 58.382 224.106C55.2445 225.502 51.7821 226.002 48.3781 225.551C44.974 225.101 41.761 223.717 39.0945 221.554C36.428 219.39 34.4121 216.531 33.2697 213.293L3.43091 128.715L39.9118 116.186L68.3332 201.249L35.2168 197.23L81.8118 119.869L117.552 142.894Z" fill="#367CFF"/>
<path d="M194.223 189.792H194.197C194.127 189.785 194.063 189.751 194.018 189.696C193.973 189.642 193.951 189.572 193.957 189.502L197.425 152.544C197.434 152.474 197.469 152.411 197.522 152.366C197.576 152.322 197.645 152.299 197.715 152.304C197.785 152.31 197.85 152.345 197.895 152.399C197.939 152.453 197.961 152.523 197.955 152.593L194.487 189.552C194.481 189.617 194.45 189.678 194.401 189.723C194.352 189.767 194.288 189.792 194.223 189.792Z" fill="#0C0C0C"/>
<path d="M81.0044 194.1C80.9356 194.1 80.8695 194.073 80.82 194.025C80.7705 193.977 80.7413 193.912 80.7387 193.844L79.5546 159.625C79.5523 159.554 79.578 159.486 79.626 159.435C79.674 159.383 79.7404 159.353 79.8107 159.35C79.8802 159.351 79.947 159.378 79.9979 159.425C80.0488 159.472 80.0802 159.537 80.086 159.606L81.2701 193.825C81.2724 193.895 81.2467 193.964 81.1988 194.015C81.1508 194.067 81.0843 194.097 81.014 194.1H81.0044Z" fill="#0C0C0C"/>
<path d="M375.654 148.811V104.523C375.654 103.096 375.087 101.728 374.078 100.718C373.068 99.7092 371.7 99.1422 370.272 99.1422H319.056C317.628 99.1422 316.26 99.7092 315.251 100.718C314.241 101.728 313.674 103.096 313.674 104.523V135.906C313.674 137.333 314.241 138.702 315.251 139.711C316.26 140.72 317.628 141.287 319.056 141.287H361.599L373.642 149.85C373.833 149.985 374.057 150.065 374.29 150.081C374.523 150.098 374.756 150.05 374.964 149.942C375.171 149.835 375.345 149.673 375.467 149.474C375.589 149.274 375.653 149.045 375.654 148.811Z" fill="#0CBC8B"/>
<path opacity="0.5" d="M375.654 148.811V104.523C375.654 103.096 375.087 101.728 374.078 100.718C373.068 99.7092 371.7 99.1422 370.272 99.1422H319.056C317.628 99.1422 316.26 99.7092 315.251 100.718C314.241 101.728 313.674 103.096 313.674 104.523V135.906C313.674 137.333 314.241 138.702 315.251 139.711C316.26 140.72 317.628 141.287 319.056 141.287H361.599L373.642 149.85C373.833 149.985 374.057 150.065 374.29 150.081C374.523 150.098 374.756 150.05 374.964 149.942C375.171 149.835 375.345 149.673 375.467 149.474C375.589 149.274 375.653 149.045 375.654 148.811Z" fill="white"/>
<path d="M361.605 125.999C364.572 125.999 366.977 123.594 366.977 120.628C366.977 117.661 364.572 115.256 361.605 115.256C358.638 115.256 356.234 117.661 356.234 120.628C356.234 123.594 358.638 125.999 361.605 125.999Z" fill="white"/>
<path d="M344.665 125.999C347.632 125.999 350.037 123.594 350.037 120.628C350.037 117.661 347.632 115.256 344.665 115.256C341.698 115.256 339.293 117.661 339.293 120.628C339.293 123.594 341.698 125.999 344.665 125.999Z" fill="white"/>
<path d="M327.724 125.999C330.691 125.999 333.096 123.594 333.096 120.628C333.096 117.661 330.691 115.256 327.724 115.256C324.758 115.256 322.353 117.661 322.353 120.628C322.353 123.594 324.758 125.999 327.724 125.999Z" fill="white"/>
<path d="M224.514 66.4889V5.18928C224.514 4.50781 224.649 3.83302 224.909 3.20343C225.17 2.57384 225.552 2.00177 226.034 1.51991C226.516 1.03804 227.088 0.655796 227.718 0.39501C228.347 0.134225 229.022 0 229.704 0L301.805 0C302.487 0 303.161 0.134225 303.791 0.39501C304.421 0.655796 304.993 1.03804 305.475 1.51991C305.956 2.00177 306.339 2.57384 306.6 3.20343C306.86 3.83302 306.995 4.50781 306.995 5.18928V50.8977C306.995 51.5791 306.86 52.2539 306.6 52.8835C306.339 53.5131 305.956 54.0852 305.475 54.567C304.993 55.0489 304.421 55.4311 303.791 55.6919C303.161 55.9527 302.487 56.0869 301.805 56.0869H243.218L226.878 67.7084C226.654 67.8681 226.391 67.9631 226.116 67.9828C225.842 68.0025 225.568 67.9463 225.324 67.8202C225.079 67.6942 224.875 67.5032 224.732 67.2683C224.589 67.0335 224.514 66.7638 224.514 66.4889Z" fill="#0CBC8B"/>
<path d="M265.753 48.6488C267.507 48.6488 268.929 47.227 268.929 45.4732C268.929 43.7194 267.507 42.2976 265.753 42.2976C263.999 42.2976 262.578 43.7194 262.578 45.4732C262.578 47.227 263.999 48.6488 265.753 48.6488Z" fill="white"/>
<path d="M265.606 38.5803C265.057 38.5803 264.532 38.3625 264.144 37.9749C263.756 37.5872 263.538 37.0615 263.538 36.5133V28.8352C263.538 28.3713 263.694 27.9209 263.981 27.5564C264.268 27.1919 264.669 26.9345 265.12 26.8257C265.21 26.8035 274.458 24.4629 274.458 18.2395C274.458 14.3345 271.257 11.607 266.673 11.607C261.71 11.607 259.158 16.5689 259.055 16.7807C258.806 17.2624 258.378 17.627 257.863 17.7962C257.347 17.9653 256.787 17.9253 256.301 17.6849C255.815 17.4444 255.443 17.0227 255.265 16.5106C255.087 15.9985 255.117 15.437 255.349 14.9469C255.499 14.6422 259.113 7.47284 266.676 7.47284C273.582 7.47284 278.595 12.0005 278.595 18.2395C278.595 25.7586 271.051 29.2023 267.678 30.3666V36.5133C267.678 36.7852 267.624 37.0544 267.52 37.3055C267.416 37.5567 267.263 37.7848 267.071 37.9768C266.878 38.1688 266.65 38.321 266.398 38.4245C266.147 38.5281 265.877 38.581 265.606 38.5803Z" fill="white"/>
<path d="M411.338 176.439C418.888 176.439 425.008 170.318 425.008 162.768C425.008 155.218 418.888 149.097 411.338 149.097C403.788 149.097 397.667 155.218 397.667 162.768C397.667 170.318 403.788 176.439 411.338 176.439Z" fill="#367CFF"/>
<path d="M404.931 161.473C404.579 161.473 404.236 161.37 403.942 161.177C403.648 160.984 403.417 160.709 403.278 160.386C403.031 159.814 397.309 146.157 403.524 126.122C410.258 104.42 433.708 104.168 433.945 104.168C434.422 104.168 434.88 104.357 435.217 104.695C435.554 105.032 435.744 105.49 435.744 105.967C435.744 106.444 435.554 106.902 435.217 107.24C434.88 107.577 434.422 107.767 433.945 107.767C433.088 107.767 412.897 108.049 406.96 127.187C401.134 145.963 406.525 158.831 406.58 158.959C406.698 159.233 406.747 159.531 406.721 159.828C406.695 160.125 406.595 160.411 406.432 160.66C406.268 160.91 406.045 161.114 405.783 161.256C405.52 161.397 405.227 161.472 404.929 161.472L404.931 161.473Z" fill="#367CFF"/>
<path d="M406.389 176.439C413.939 176.439 420.059 170.318 420.059 162.768C420.059 155.218 413.939 149.097 406.389 149.097C398.839 149.097 392.718 155.218 392.718 162.768C392.718 170.318 398.839 176.439 406.389 176.439Z" fill="#367CFF"/>
<path opacity="0.3" d="M406.389 176.439C413.939 176.439 420.059 170.318 420.059 162.768C420.059 155.218 413.939 149.097 406.389 149.097C398.839 149.097 392.718 155.218 392.718 162.768C392.718 170.318 398.839 176.439 406.389 176.439Z" fill="white"/>
<path d="M409.669 176.439C417.219 176.439 423.339 170.318 423.339 162.768C423.339 155.218 417.219 149.097 409.669 149.097C402.119 149.097 395.998 155.218 395.998 162.768C395.998 170.318 402.119 176.439 409.669 176.439Z" fill="#367CFF"/>
<path d="M474.153 138.171C474.153 138.171 478.544 159.216 483.79 165.584C498.891 183.914 505.519 205.932 494.683 219.362C483.847 232.793 408.358 243.641 398.707 217.41C390.584 195.326 399.298 191.416 399.405 172.281C399.453 163.623 400.651 145.362 400.651 145.362" fill="#0A0A0A"/>
<path d="M411.061 206.275C411.199 206.257 412.731 231.667 442.249 229.452C462.685 227.921 469.971 206.238 470.442 206.238C468.239 205.77 464.529 205.088 463.55 204.567C460.332 202.837 456.352 201.038 455.313 194.789C454.714 191.19 455.73 172.761 455.418 169.116L424.047 176.121C424.485 183.817 427.552 201.659 416.801 204.817C415.011 205.339 413.085 205.82 411.061 206.275Z" fill="#E98862"/>
<path opacity="0.5" d="M423.609 197.525C424.101 195.942 424.417 194.309 424.553 192.657C424.898 188.886 424.829 185.089 424.348 181.333C430.723 180.472 436.729 177.841 441.684 173.737C442.266 175.888 445.469 185.288 444.583 187.332C442.905 191.197 435.027 197.525 423.609 197.525Z" fill="#0C0C0C"/>
<path d="M429.191 191.943C441.608 191.477 456.804 184.436 457.888 167.671L458.867 152.544C459.951 135.779 452.024 121.619 436.239 120.598C420.454 119.578 407.777 132.405 406.693 149.17L406.26 155.867C405.844 162.299 407.038 192.777 429.191 191.943Z" fill="#E98862"/>
<path opacity="0.1" d="M434.095 169.507C436.145 169.476 437.788 168.232 437.765 166.729C437.742 165.225 436.062 164.032 434.012 164.064C431.963 164.095 430.32 165.339 430.343 166.842C430.366 168.345 432.046 169.538 434.095 169.507Z" fill="#0C0C0C"/>
<path opacity="0.1" d="M411.988 166.464C412.006 167.963 410.364 169.208 408.314 169.242C407.96 169.247 407.606 169.216 407.258 169.148C406.927 167.399 406.693 165.705 406.533 164.13C407.074 163.914 407.651 163.802 408.234 163.798C410.283 163.764 411.962 164.958 411.988 166.464Z" fill="#0C0C0C"/>
<path d="M411.428 155.171C412.5 155.171 413.37 154.302 413.37 153.23C413.37 152.157 412.5 151.288 411.428 151.288C410.356 151.288 409.486 152.157 409.486 153.23C409.486 154.302 410.356 155.171 411.428 155.171Z" fill="#0C0C0C"/>
<path d="M430.641 156.607C431.713 156.607 432.583 155.738 432.583 154.665C432.583 153.593 431.713 152.724 430.641 152.724C429.569 152.724 428.699 153.593 428.699 154.665C428.699 155.738 429.569 156.607 430.641 156.607Z" fill="#0C0C0C"/>
<path opacity="0.5" d="M421.516 169.828H421.485C420.845 169.782 420.208 169.7 419.577 169.585C418.634 169.405 417.387 169.068 417.441 168.23C417.501 167.275 420.786 157.137 421.16 155.984C421.174 155.933 421.199 155.884 421.233 155.843C421.267 155.801 421.309 155.766 421.356 155.741C421.403 155.715 421.455 155.7 421.509 155.695C421.563 155.69 421.616 155.697 421.668 155.713C421.719 155.73 421.766 155.757 421.806 155.792C421.847 155.827 421.88 155.87 421.904 155.918C421.927 155.967 421.941 156.019 421.943 156.073C421.946 156.127 421.938 156.18 421.919 156.231C420.518 160.55 418.279 167.638 418.238 168.281C418.375 168.559 419.949 168.928 421.537 169.031C421.639 169.039 421.735 169.085 421.804 169.161C421.873 169.237 421.91 169.337 421.907 169.44C421.904 169.542 421.862 169.64 421.79 169.712C421.717 169.785 421.619 169.826 421.517 169.829L421.516 169.828Z" fill="#0C0C0C"/>
<path opacity="0.5" d="M424.671 176.62C422.114 176.604 419.598 175.988 417.324 174.821C417.229 174.774 417.156 174.692 417.122 174.592C417.087 174.492 417.094 174.382 417.141 174.287C417.187 174.192 417.27 174.119 417.37 174.085C417.47 174.051 417.58 174.057 417.675 174.104C422.58 176.503 427.152 176.427 430.893 173.882C430.969 173.828 431.047 173.778 431.128 173.733C431.222 173.69 431.329 173.685 431.426 173.719C431.523 173.753 431.604 173.824 431.65 173.916C431.697 174.008 431.706 174.115 431.675 174.213C431.645 174.312 431.578 174.395 431.488 174.445C431.458 174.462 431.409 174.496 431.342 174.542C429.374 175.883 427.051 176.607 424.671 176.62Z" fill="#0C0C0C"/>
<path d="M471.648 156.162L457.508 155.329C446.514 152.38 441.115 134.64 441.115 134.64C441.115 134.64 432.319 148.604 400.625 145.347C400.625 145.347 399.081 100.978 446.196 108.491C461.348 110.906 473.738 124.215 474.859 144.154C475.645 158.128 471.648 156.162 471.648 156.162Z" fill="#0A0A0A"/>
<path d="M456.578 172.715C461.377 173.025 465.596 168.144 465.906 163.347C466.216 158.55 462.499 155.654 457.702 155.344L455.022 158.398L452.454 172.448L456.578 172.715Z" fill="#E98862"/>
<path d="M416.824 148.838C415.544 148.17 414.11 147.852 412.667 147.917C411.942 147.945 411.225 148.082 410.541 148.324C409.85 148.565 409.192 148.891 408.583 149.295L408.564 149.307C408.496 149.349 408.414 149.362 408.336 149.345C408.259 149.327 408.191 149.28 408.148 149.213C408.104 149.146 408.089 149.064 408.105 148.986C408.121 148.908 408.167 148.839 408.232 148.795C408.874 148.337 409.571 147.962 410.306 147.678C411.046 147.388 411.826 147.212 412.619 147.155C414.223 147.028 415.833 147.335 417.279 148.042C417.388 148.097 417.47 148.192 417.509 148.307C417.547 148.423 417.538 148.548 417.484 148.657C417.43 148.766 417.334 148.849 417.219 148.887C417.104 148.926 416.978 148.917 416.869 148.862L416.857 148.856L416.824 148.838Z" fill="#0C0C0C"/>
<path d="M429.644 148.882C431.167 148.36 432.801 148.257 434.377 148.582C435.157 148.738 435.908 149.009 436.607 149.388C437.302 149.761 437.947 150.22 438.527 150.755C438.587 150.807 438.625 150.881 438.632 150.961C438.638 151.041 438.613 151.121 438.561 151.182C438.51 151.244 438.436 151.282 438.356 151.29C438.276 151.297 438.197 151.273 438.134 151.223L438.116 151.208C437.562 150.731 436.95 150.325 436.295 150.001C435.646 149.676 434.952 149.451 434.235 149.333C432.812 149.088 431.349 149.225 429.996 149.729L429.963 149.742C429.849 149.786 429.723 149.784 429.612 149.735C429.501 149.686 429.413 149.595 429.369 149.482C429.325 149.368 429.328 149.242 429.376 149.131C429.425 149.02 429.516 148.932 429.63 148.888L429.644 148.882Z" fill="#0C0C0C"/>
<path opacity="0.52" d="M424.594 180.406C424.132 180.41 423.67 180.375 423.214 180.301C423.11 180.284 423.016 180.227 422.954 180.141C422.892 180.056 422.866 179.949 422.883 179.844C422.9 179.74 422.957 179.646 423.043 179.584C423.128 179.522 423.235 179.496 423.34 179.513C426.085 179.949 427.468 178.753 427.526 178.702C427.605 178.631 427.708 178.594 427.814 178.599C427.919 178.605 428.019 178.652 428.09 178.73C428.161 178.809 428.197 178.912 428.192 179.018C428.187 179.124 428.14 179.223 428.061 179.294C427.069 180.054 425.843 180.447 424.594 180.406Z" fill="#0C0C0C"/>
<path d="M457.662 155.121C447.936 152.923 443.999 146.941 442.411 142.309C441.371 139.217 440.988 135.943 441.286 132.695L441.586 132.735C441.292 135.941 441.672 139.172 442.701 142.223C444.266 146.778 448.144 152.66 457.73 154.828L457.662 155.121Z" fill="#0C0C0C"/>
<path d="M317.224 196.922L312.379 176.955C312.273 176.516 312.076 176.105 311.802 175.746C311.527 175.388 311.181 175.09 310.786 174.873C310.39 174.655 309.954 174.523 309.504 174.483C309.054 174.444 308.601 174.499 308.174 174.644C307.393 174.936 306.749 175.508 306.366 176.249C305.983 176.989 305.888 177.846 306.101 178.652L307.14 182.933L297.693 170.969C296.666 169.621 294.543 168.623 293.107 169.875C292.522 170.321 292.106 170.951 291.926 171.663C291.746 172.376 291.813 173.128 292.116 173.798C292.101 173.804 292.087 173.813 292.073 173.822C292.064 173.831 292.056 173.84 292.049 173.851L290.464 171.771C290.171 171.386 289.795 171.072 289.365 170.85C288.934 170.629 288.46 170.506 287.976 170.492C287.492 170.477 287.011 170.57 286.567 170.765C286.124 170.96 285.73 171.251 285.414 171.618C284.927 172.205 284.657 172.941 284.648 173.703C284.639 174.466 284.893 175.208 285.366 175.806L286.04 176.692C286.023 176.723 286.012 176.757 286.008 176.792C285.414 176.3 284.664 176.035 283.892 176.045C283.121 176.055 282.378 176.339 281.797 176.846C281.178 177.419 280.797 178.206 280.732 179.047C280.666 179.889 280.921 180.725 281.444 181.387L283.118 183.586C283.073 183.571 283.024 183.568 282.977 183.576C282.93 183.584 282.885 183.603 282.847 183.631C282.803 183.668 282.771 183.716 282.755 183.77C282.104 183.48 281.377 183.41 280.683 183.573C279.99 183.735 279.369 184.121 278.916 184.67C278.452 185.258 278.2 185.986 278.2 186.735C278.201 187.484 278.455 188.211 278.92 188.798L293.045 207.341C295.021 209.936 297.727 211.88 300.815 212.927C303.904 213.973 307.235 214.073 310.381 213.215C313.093 212.474 315.41 210.705 316.839 208.283C318.268 205.862 318.696 202.978 318.033 200.246L317.224 196.922Z" fill="#E98862"/>
<g opacity="0.2">
<path d="M301.407 185.687C301.345 185.734 301.266 185.755 301.188 185.744C301.111 185.734 301.04 185.694 300.992 185.632L292.023 174.244C291.974 174.181 291.951 174.102 291.961 174.023C291.97 173.944 292.01 173.872 292.073 173.822C292.135 173.773 292.215 173.751 292.294 173.76C292.373 173.769 292.445 173.81 292.494 173.872L301.463 185.262C301.512 185.324 301.534 185.403 301.525 185.482C301.515 185.561 301.475 185.632 301.413 185.682L301.407 185.687Z" fill="#0C0C0C"/>
</g>
<g opacity="0.2">
<path d="M296.494 189.781C296.431 189.828 296.352 189.849 296.275 189.839C296.197 189.829 296.126 189.788 296.078 189.727L286.069 177.015C286.02 176.953 285.998 176.873 286.007 176.795C286.016 176.716 286.056 176.644 286.119 176.595C286.182 176.549 286.261 176.528 286.338 176.538C286.416 176.547 286.488 176.586 286.538 176.645L296.548 189.356C296.596 189.418 296.619 189.497 296.609 189.576C296.6 189.654 296.56 189.726 296.498 189.776L296.494 189.781Z" fill="#0C0C0C"/>
</g>
<g opacity="0.2">
<path d="M291.198 194.246C291.135 194.293 291.056 194.314 290.979 194.304C290.901 194.293 290.83 194.253 290.782 194.192L282.797 184.054C282.772 184.023 282.753 183.988 282.742 183.95C282.731 183.911 282.727 183.871 282.732 183.832C282.736 183.792 282.748 183.754 282.768 183.719C282.787 183.684 282.813 183.654 282.845 183.629C282.876 183.604 282.912 183.586 282.95 183.576C282.988 183.565 283.029 183.562 283.068 183.567C283.108 183.572 283.146 183.585 283.18 183.605C283.215 183.625 283.245 183.652 283.269 183.683L291.253 193.821C291.302 193.883 291.324 193.963 291.315 194.041C291.305 194.12 291.265 194.192 291.203 194.241L291.198 194.246Z" fill="#0C0C0C"/>
</g>
<path d="M378.909 214.062L339.779 260.011L323.298 195.868L281.219 207.046L308.602 306.829C309.494 310.038 311.126 312.994 313.367 315.459C315.23 317.495 317.477 319.145 319.978 320.313C322.479 321.481 325.186 322.145 327.944 322.267C330.702 322.389 333.457 321.967 336.052 321.024C338.646 320.082 341.03 318.637 343.066 316.773L343.42 316.45L413.37 249.214L378.909 214.062Z" fill="#367CFF"/>
<path d="M317.224 196.922L312.379 176.955C312.273 176.516 312.076 176.105 311.802 175.746C311.527 175.388 311.181 175.09 310.786 174.873C310.39 174.655 309.953 174.523 309.504 174.483C309.054 174.444 308.601 174.499 308.174 174.644C307.393 174.936 306.749 175.508 306.366 176.249C305.983 176.989 305.888 177.846 306.101 178.652L307.14 182.933L308.514 190.536" fill="#E98862"/>
<path d="M442.801 223.1C463.251 222.136 464.111 204.779 464.111 204.779C464.111 204.779 474.244 205.433 480.98 206.345C492.007 207.837 499.282 211.576 505.071 217.366C510.457 222.752 513.736 228.578 510.266 265.78C507.754 292.713 509.522 351.965 509.522 351.965H386.104C386.104 351.965 378.702 274.306 377.671 262.181C375.702 239.033 367.639 225.986 378.909 214.062C387.081 205.415 408.182 204.779 416.674 204.78C416.812 204.78 414.951 224.413 442.801 223.1Z" fill="#367CFF"/>
<path d="M378.389 258.31C378.387 258.271 378.376 258.232 378.359 258.197C378.342 258.161 378.317 258.129 378.288 258.103C378.258 258.077 378.224 258.057 378.186 258.045C378.149 258.032 378.11 258.026 378.07 258.029C378.031 258.031 377.992 258.042 377.957 258.059C377.921 258.076 377.89 258.101 377.864 258.13C377.838 258.16 377.818 258.194 377.805 258.232C377.792 258.269 377.787 258.308 377.789 258.348L379.043 281.78C379.048 281.852 379.078 281.92 379.129 281.971C379.18 282.023 379.247 282.054 379.319 282.06C379.333 282.061 379.347 282.061 379.361 282.06C379.441 282.055 379.515 282.018 379.568 281.959C379.62 281.899 379.647 281.821 379.642 281.742" fill="#0C0C0C"/>
<path d="M405.581 316.827L385.616 311.976C385.178 311.869 384.722 311.855 384.277 311.935C383.833 312.014 383.41 312.185 383.035 312.437C382.661 312.689 382.343 313.016 382.102 313.397C381.86 313.779 381.701 314.207 381.634 314.653C381.536 315.481 381.749 316.316 382.231 316.996C382.714 317.676 383.431 318.152 384.245 318.333L388.526 319.373L373.563 322.282C371.893 322.576 370.033 324.005 370.487 325.856C370.615 326.58 370.984 327.24 371.536 327.726C372.087 328.213 372.787 328.499 373.522 328.536C373.52 328.553 373.52 328.569 373.522 328.586C373.526 328.598 373.531 328.609 373.536 328.62L370.962 329.074C370.485 329.158 370.033 329.348 369.639 329.629C369.245 329.91 368.918 330.276 368.683 330.699C368.448 331.122 368.311 331.593 368.281 332.076C368.251 332.559 368.329 333.043 368.509 333.492C368.808 334.194 369.338 334.772 370.012 335.129C370.686 335.487 371.462 335.602 372.21 335.456L373.305 335.263C373.326 335.292 373.351 335.317 373.38 335.338C372.67 335.64 372.091 336.184 371.746 336.874C371.401 337.564 371.313 338.354 371.497 339.103C371.722 339.918 372.246 340.617 372.964 341.062C373.682 341.506 374.542 341.664 375.371 341.503L378.092 341.023C378.058 341.057 378.033 341.098 378.019 341.144C378.004 341.189 378 341.238 378.008 341.285C378.021 341.34 378.049 341.391 378.09 341.431C377.532 341.875 377.137 342.491 376.963 343.182C376.79 343.874 376.848 344.603 377.13 345.258C377.44 345.94 377.971 346.498 378.637 346.841C379.303 347.184 380.065 347.292 380.8 347.147L403.756 343.099C406.968 342.533 409.937 341.02 412.283 338.755C414.63 336.49 416.246 333.576 416.926 330.387C417.511 327.637 417.002 324.767 415.505 322.386C414.009 320.006 411.643 318.302 408.91 317.638L405.581 316.827Z" fill="#E98862"/>
<g opacity="0.2">
<path d="M388.344 325.73C388.357 325.807 388.339 325.887 388.295 325.951C388.25 326.016 388.181 326.06 388.104 326.075L373.87 328.822C373.792 328.837 373.711 328.821 373.645 328.776C373.579 328.731 373.534 328.663 373.519 328.584C373.504 328.506 373.52 328.425 373.565 328.359C373.609 328.294 373.678 328.248 373.756 328.233L387.99 325.485C388.029 325.478 388.069 325.478 388.108 325.486C388.146 325.494 388.183 325.51 388.216 325.532C388.248 325.554 388.276 325.583 388.298 325.616C388.32 325.649 388.334 325.686 388.342 325.725L388.344 325.73Z" fill="#0C0C0C"/>
</g>
<g opacity="0.2">
<path d="M389.729 331.974C389.742 332.052 389.724 332.131 389.68 332.195C389.635 332.26 389.566 332.304 389.489 332.319L373.604 335.385C373.565 335.392 373.525 335.392 373.487 335.384C373.448 335.376 373.411 335.36 373.378 335.338C373.346 335.316 373.318 335.287 373.296 335.254C373.275 335.221 373.26 335.184 373.253 335.145C373.24 335.067 373.258 334.987 373.303 334.922C373.348 334.857 373.415 334.811 373.493 334.794L389.377 331.728C389.416 331.72 389.456 331.72 389.495 331.729C389.533 331.737 389.57 331.752 389.603 331.774C389.636 331.797 389.663 331.825 389.685 331.859C389.707 331.892 389.721 331.929 389.729 331.968L389.729 331.974Z" fill="#0C0C0C"/>
</g>
<g opacity="0.2">
<path d="M391.268 338.728C391.281 338.806 391.263 338.885 391.218 338.95C391.174 339.014 391.105 339.058 391.028 339.073L378.357 341.519C378.279 341.534 378.198 341.517 378.132 341.473C378.066 341.428 378.021 341.359 378.006 341.281C377.991 341.203 378.007 341.122 378.052 341.056C378.097 340.99 378.166 340.945 378.244 340.93L390.915 338.484C390.954 338.476 390.994 338.477 391.032 338.485C391.071 338.493 391.108 338.508 391.141 338.531C391.173 338.553 391.201 338.581 391.223 338.615C391.244 338.648 391.259 338.685 391.266 338.724L391.268 338.728Z" fill="#0C0C0C"/>
</g>
<path d="M403.592 350.949L510.868 351.534C514.323 351.91 517.818 351.48 521.079 350.279C524.34 349.077 527.279 347.136 529.664 344.608C532.049 342.08 533.816 339.033 534.825 335.708C535.835 332.382 536.061 328.868 535.484 325.441L511.586 229.705C511.096 226.792 510.037 224.004 508.47 221.5C506.902 218.996 504.857 216.825 502.45 215.111C500.044 213.398 497.324 212.175 494.445 211.513C491.566 210.85 488.585 210.762 485.672 211.252C482.758 211.741 479.97 212.8 477.466 214.368C474.962 215.935 472.791 217.981 471.078 220.387C469.364 222.793 468.141 225.514 467.479 228.393C466.817 231.271 466.728 234.253 467.218 237.166L485.546 309.289L404.114 311.961L403.592 350.949Z" fill="#367CFF"/>
<path d="M499.571 308.981C499.646 308.981 499.719 308.952 499.774 308.901C499.829 308.849 499.863 308.779 499.868 308.704C499.874 308.629 499.851 308.554 499.804 308.495C499.757 308.436 499.69 308.397 499.615 308.385L485.722 308.89C485.683 308.883 485.643 308.885 485.605 308.894C485.566 308.903 485.53 308.92 485.498 308.944C485.467 308.967 485.44 308.997 485.42 309.031C485.4 309.065 485.386 309.102 485.381 309.142C485.369 309.22 485.389 309.3 485.437 309.364C485.484 309.428 485.555 309.471 485.633 309.482L499.527 308.978C499.541 308.98 499.556 308.981 499.571 308.981Z" fill="#0C0C0C"/>
<path d="M507.748 351.965C507.827 351.97 507.906 351.944 507.965 351.891C508.025 351.838 508.062 351.764 508.067 351.685C508.072 351.605 508.045 351.527 507.993 351.467C507.94 351.407 507.866 351.37 507.786 351.365L404.22 350.719L404.674 312.329L485.625 309.484C485.671 309.49 485.718 309.485 485.763 309.47C485.807 309.454 485.847 309.429 485.88 309.395C485.912 309.361 485.937 309.32 485.951 309.276C485.965 309.231 485.968 309.183 485.96 309.137L477.133 265.786C477.127 265.747 477.113 265.709 477.092 265.676C477.071 265.642 477.044 265.613 477.012 265.59C476.98 265.567 476.943 265.551 476.905 265.542C476.866 265.534 476.826 265.533 476.787 265.54C476.748 265.546 476.711 265.56 476.678 265.581C476.644 265.602 476.615 265.629 476.592 265.661C476.569 265.694 476.553 265.73 476.544 265.768C476.535 265.807 476.534 265.846 476.541 265.885L485.301 308.834L404.449 311.692C404.409 311.687 404.369 311.69 404.33 311.7C404.291 311.711 404.255 311.729 404.224 311.754C404.192 311.778 404.166 311.809 404.147 311.844C404.127 311.879 404.115 311.918 404.111 311.958L403.592 350.948C403.584 351.026 403.606 351.104 403.655 351.165C403.703 351.227 403.774 351.267 403.851 351.277L507.708 351.963C507.721 351.965 507.734 351.965 507.748 351.965Z" fill="#0C0C0C"/>
<path d="M464.733 160.717C464.256 160.717 463.798 160.527 463.461 160.189C463.124 159.852 462.934 159.394 462.934 158.917V138.418C462.934 127.986 460.047 119.721 454.585 114.516C449.407 109.581 441.977 107.312 432.507 107.766C432.032 107.787 431.568 107.618 431.217 107.297C430.866 106.976 430.656 106.53 430.633 106.055C430.61 105.58 430.776 105.115 431.095 104.762C431.414 104.409 431.86 104.197 432.335 104.171C442.827 103.664 451.149 106.271 457.067 111.909C463.26 117.811 466.533 126.978 466.533 138.417V158.916C466.533 159.153 466.487 159.387 466.396 159.605C466.306 159.824 466.173 160.022 466.006 160.189C465.839 160.356 465.641 160.489 465.422 160.579C465.204 160.67 464.97 160.717 464.733 160.717Z" fill="#367CFF"/>
<path d="M462.044 176.439C469.594 176.439 475.715 170.318 475.715 162.768C475.715 155.218 469.594 149.097 462.044 149.097C454.494 149.097 448.374 155.218 448.374 162.768C448.374 170.318 454.494 176.439 462.044 176.439Z" fill="#367CFF"/>
<path d="M462.572 173.009C462.476 172.939 462.368 172.889 462.252 172.861C462.137 172.833 462.017 172.829 461.9 172.847C461.783 172.866 461.671 172.908 461.57 172.97C461.469 173.032 461.382 173.114 461.312 173.21L460.266 174.655C458.984 176.422 457.303 177.86 455.359 178.853C453.415 179.845 451.264 180.364 449.081 180.367H432.441V180.014C432.441 179.537 432.252 179.079 431.914 178.742C431.577 178.404 431.119 178.215 430.642 178.215H425.008C424.531 178.215 424.073 178.404 423.736 178.742C423.398 179.079 423.209 179.537 423.209 180.014V182.648C423.209 183.125 423.398 183.583 423.736 183.921C424.073 184.258 424.531 184.448 425.008 184.448H430.642C431.119 184.448 431.577 184.258 431.914 183.921C432.252 183.583 432.441 183.125 432.441 182.648V182.165H449.084C451.552 182.162 453.983 181.575 456.18 180.453C458.377 179.331 460.278 177.705 461.727 175.708L462.774 174.263C462.913 174.07 462.97 173.83 462.932 173.594C462.894 173.359 462.765 173.148 462.572 173.009Z" fill="#367CFF"/>
<path d="M465.324 176.439C472.874 176.439 478.994 170.318 478.994 162.768C478.994 155.218 472.874 149.097 465.324 149.097C457.774 149.097 451.653 155.218 451.653 162.768C451.653 170.318 457.774 176.439 465.324 176.439Z" fill="#367CFF"/>
<path opacity="0.3" d="M465.324 176.439C472.874 176.439 478.994 170.318 478.994 162.768C478.994 155.218 472.874 149.097 465.324 149.097C457.774 149.097 451.653 155.218 451.653 162.768C451.653 170.318 457.774 176.439 465.324 176.439Z" fill="white"/>
<path d="M307.474 321.606H170.032C167.542 321.606 165.154 320.617 163.393 318.856C161.632 317.095 160.643 314.707 160.643 312.217L147.853 211.193C147.853 209.96 148.096 208.739 148.568 207.6C149.04 206.46 149.731 205.425 150.603 204.553C151.475 203.682 152.51 202.99 153.649 202.518C154.788 202.046 156.009 201.804 157.242 201.804H294.685C295.918 201.804 297.138 202.046 298.278 202.518C299.417 202.99 300.452 203.682 301.324 204.553C302.196 205.425 302.887 206.46 303.359 207.599C303.831 208.739 304.074 209.96 304.074 211.193L316.863 312.217C316.863 313.45 316.621 314.671 316.149 315.81C315.677 316.949 314.985 317.984 314.114 318.856C313.242 319.728 312.207 320.42 311.068 320.892C309.928 321.364 308.708 321.606 307.474 321.606Z" fill="#292A2E"/>
<path d="M233.877 351.965H201.792C201.043 351.965 200.305 351.788 199.638 351.449C198.971 351.109 198.393 350.616 197.953 350.011C197.512 349.405 197.221 348.704 197.103 347.965C196.986 347.226 197.044 346.469 197.275 345.756L216.517 286.274C216.825 285.319 217.429 284.486 218.24 283.896C219.052 283.305 220.03 282.987 221.033 282.987H249.953C250.476 282.987 250.993 283.105 251.463 283.334C251.934 283.562 252.347 283.894 252.67 284.305C252.994 284.717 253.22 285.196 253.331 285.707C253.442 286.218 253.436 286.748 253.312 287.256L238.496 348.337C238.245 349.372 237.653 350.293 236.815 350.951C235.977 351.609 234.943 351.966 233.877 351.965Z" fill="#292A2E"/>
<path d="M261.776 346.581H204.573C203.087 346.581 201.881 347.787 201.881 349.273C201.881 350.76 203.087 351.965 204.573 351.965H261.776C263.263 351.965 264.468 350.76 264.468 349.273C264.468 347.787 263.263 346.581 261.776 346.581Z" fill="#292A2E"/>
<path opacity="0.2" d="M261.776 346.581H238.922L253.318 287.256C253.442 286.748 253.448 286.218 253.337 285.707C253.225 285.196 252.999 284.717 252.676 284.306C252.352 283.895 251.94 283.562 251.469 283.334C250.999 283.105 250.482 282.987 249.959 282.987H221.033C220.03 282.987 219.052 283.305 218.24 283.896C217.429 284.486 216.825 285.319 216.517 286.274L197.275 345.756C197.044 346.469 196.986 347.225 197.103 347.965C197.221 348.704 197.512 349.405 197.953 350.011C198.393 350.616 198.97 351.109 199.638 351.448C200.305 351.788 201.043 351.965 201.791 351.965H261.776C262.49 351.965 263.175 351.682 263.68 351.177C264.185 350.672 264.468 349.987 264.468 349.273C264.468 348.559 264.185 347.875 263.68 347.37C263.175 346.865 262.49 346.581 261.776 346.581Z" fill="white"/>
<path d="M231.803 306.756C236.385 306.756 240.098 303.042 240.098 298.461C240.098 293.88 236.385 290.167 231.803 290.167C227.222 290.167 223.509 293.88 223.509 298.461C223.509 303.042 227.222 306.756 231.803 306.756Z" fill="#292A2E"/>
<path d="M297.198 346.581H300.4C300.485 346.151 300.716 345.763 301.054 345.485C301.393 345.206 301.817 345.054 302.256 345.053H304.802C305.241 345.053 305.665 345.206 306.004 345.485C306.342 345.763 306.573 346.151 306.657 346.581H308.65C308.734 346.151 308.966 345.763 309.304 345.485C309.642 345.206 310.067 345.054 310.505 345.053H313.052C313.49 345.054 313.915 345.206 314.253 345.485C314.592 345.763 314.823 346.151 314.907 346.581H316.9C316.984 346.151 317.215 345.763 317.553 345.485C317.892 345.206 318.316 345.054 318.755 345.053H321.302C321.74 345.054 322.165 345.206 322.503 345.485C322.841 345.763 323.072 346.151 323.157 346.581H325.149C325.233 346.151 325.464 345.763 325.803 345.485C326.141 345.206 326.566 345.054 327.004 345.053H329.553C329.991 345.054 330.416 345.206 330.755 345.485C331.093 345.763 331.324 346.151 331.408 346.581H333.401C333.485 346.151 333.716 345.763 334.055 345.485C334.393 345.206 334.818 345.054 335.256 345.053H337.803C338.241 345.054 338.666 345.206 339.004 345.485C339.343 345.763 339.574 346.151 339.658 346.581H341.098C341.182 346.151 341.413 345.763 341.751 345.485C342.09 345.206 342.515 345.054 342.953 345.053H365.562C366.001 345.053 366.426 345.206 366.764 345.485C367.103 345.763 367.334 346.151 367.418 346.581H369.263C369.347 346.151 369.578 345.763 369.917 345.485C370.255 345.206 370.68 345.054 371.118 345.053H373.665C374.103 345.054 374.528 345.206 374.866 345.485C375.205 345.763 375.436 346.151 375.52 346.581H377.513C377.597 346.151 377.828 345.763 378.166 345.485C378.505 345.206 378.93 345.054 379.368 345.053H381.914C382.353 345.054 382.777 345.206 383.116 345.485C383.454 345.763 383.685 346.151 383.77 346.581H385.759C385.843 346.151 386.074 345.763 386.412 345.485C386.75 345.206 387.175 345.054 387.613 345.053H390.16C390.599 345.054 391.023 345.206 391.362 345.485C391.7 345.763 391.931 346.151 392.016 346.581H394.008C394.092 346.151 394.323 345.763 394.662 345.485C395 345.206 395.425 345.054 395.863 345.053H398.41C398.848 345.054 399.273 345.206 399.611 345.485C399.95 345.763 400.181 346.151 400.265 346.581H408.645C409.359 346.581 410.044 346.865 410.549 347.37C411.054 347.875 411.337 348.559 411.337 349.273C411.337 349.987 411.054 350.672 410.549 351.177C410.044 351.682 409.359 351.965 408.645 351.965H297.198C296.484 351.965 295.8 351.682 295.295 351.177C294.79 350.672 294.506 349.987 294.506 349.273C294.506 348.559 294.79 347.875 295.295 347.37C295.8 346.865 296.484 346.581 297.198 346.581Z" fill="#292A2E"/>
<path opacity="0.2" d="M297.198 346.581H300.4C300.485 346.151 300.716 345.763 301.054 345.485C301.393 345.206 301.817 345.054 302.256 345.053H304.802C305.241 345.053 305.665 345.206 306.004 345.485C306.342 345.763 306.573 346.151 306.657 346.581H308.65C308.734 346.151 308.966 345.763 309.304 345.485C309.642 345.206 310.067 345.054 310.505 345.053H313.052C313.49 345.054 313.915 345.206 314.253 345.485C314.592 345.763 314.823 346.151 314.907 346.581H316.9C316.984 346.151 317.215 345.763 317.553 345.485C317.892 345.206 318.316 345.054 318.755 345.053H321.302C321.74 345.054 322.165 345.206 322.503 345.485C322.841 345.763 323.072 346.151 323.157 346.581H325.149C325.233 346.151 325.464 345.763 325.803 345.485C326.141 345.206 326.566 345.054 327.004 345.053H329.553C329.991 345.054 330.416 345.206 330.755 345.485C331.093 345.763 331.324 346.151 331.408 346.581H333.401C333.485 346.151 333.716 345.763 334.055 345.485C334.393 345.206 334.818 345.054 335.256 345.053H337.803C338.241 345.054 338.666 345.206 339.004 345.485C339.343 345.763 339.574 346.151 339.658 346.581H341.098C341.182 346.151 341.413 345.763 341.751 345.485C342.09 345.206 342.515 345.054 342.953 345.053H365.562C366.001 345.053 366.426 345.206 366.764 345.485C367.103 345.763 367.334 346.151 367.418 346.581H369.263C369.347 346.151 369.578 345.763 369.917 345.485C370.255 345.206 370.68 345.054 371.118 345.053H373.665C374.103 345.054 374.528 345.206 374.866 345.485C375.205 345.763 375.436 346.151 375.52 346.581H377.513C377.597 346.151 377.828 345.763 378.166 345.485C378.505 345.206 378.93 345.054 379.368 345.053H381.914C382.353 345.054 382.777 345.206 383.116 345.485C383.454 345.763 383.685 346.151 383.77 346.581H385.759C385.843 346.151 386.074 345.763 386.412 345.485C386.75 345.206 387.175 345.054 387.613 345.053H390.16C390.599 345.054 391.023 345.206 391.362 345.485C391.7 345.763 391.931 346.151 392.016 346.581H394.008C394.092 346.151 394.323 345.763 394.662 345.485C395 345.206 395.425 345.054 395.863 345.053H398.41C398.848 345.054 399.273 345.206 399.611 345.485C399.95 345.763 400.181 346.151 400.265 346.581H408.645C409.359 346.581 410.044 346.865 410.549 347.37C411.054 347.875 411.337 348.559 411.337 349.273C411.337 349.987 411.054 350.672 410.549 351.177C410.044 351.682 409.359 351.965 408.645 351.965H297.198C296.484 351.965 295.8 351.682 295.295 351.177C294.79 350.672 294.506 349.987 294.506 349.273C294.506 348.559 294.79 347.875 295.295 347.37C295.8 346.865 296.484 346.581 297.198 346.581Z" fill="white"/>
<path d="M90.7837 352.885H537.4C537.559 352.885 537.712 352.822 537.824 352.709C537.937 352.597 538 352.444 538 352.285C538 352.126 537.937 351.973 537.824 351.861C537.712 351.748 537.559 351.685 537.4 351.685H90.7837C90.6246 351.685 90.472 351.748 90.3595 351.861C90.247 351.973 90.1838 352.126 90.1838 352.285C90.1838 352.444 90.247 352.597 90.3595 352.709C90.472 352.822 90.6246 352.885 90.7837 352.885Z" fill="#292A2E"/>
</svg>
